<svg width="48" height="49" viewBox="0 0 48 49" fill="none" xmlns="http://www.w3.org/2000/svg">
<mask id="mask0_1_407" style="mask-type:alpha" maskUnits="userSpaceOnUse" x="0" y="0" width="49" height="49">
<rect x="0.0012207" y="0.0419922" width="48" height="48" fill="#D9D9D9"/>
</mask>
<g mask="url(#mask0_1_407)">
<path d="M24.0007 42.3499C23.08 42.3499 22.2794 42.0416 21.5987 41.4249C20.918 40.8082 20.5136 40.0397 20.3852 39.1194L27.6162 39.1195C27.4879 40.0398 27.0834 40.8083 26.4027 41.425C25.722 42.0416 24.9214 42.3499 24.0007 42.3499ZM17.0008 35.5808L17.0008 33.5808L31.0008 33.581L31.0008 35.581L17.0008 35.5808ZM17.1164 30.0423C15.2267 28.804 13.7351 27.2334 12.6414 25.3308C11.5478 23.4281 11.001 21.3319 11.001 19.0422C11.0011 15.4139 12.2608 12.3403 14.7802 9.82129C17.2992 7.302 20.3729 6.04237 24.0012 6.04243C27.6296 6.04248 30.7032 7.30219 33.2222 9.82156C35.7415 12.3406 37.0011 15.4143 37.001 19.0426C37.001 21.3323 36.4541 23.4284 35.3604 25.3311C34.2667 27.2337 32.7751 28.8042 30.8854 30.0425L17.1164 30.0423ZM17.7009 28.0423L30.3009 28.0425C31.8009 26.9759 32.9593 25.6592 33.776 24.0926C34.5926 22.5259 35.001 20.8426 35.001 19.0426C35.0011 15.9759 33.9344 13.3759 31.8011 11.2425C29.6678 9.10918 27.0679 8.04247 24.0012 8.04243C20.9345 8.04238 18.3345 9.10901 16.2011 11.2423C14.0678 13.3756 13.0011 15.9756 13.001 19.0423C13.001 20.8423 13.4093 22.5256 14.226 24.0923C15.0426 25.659 16.2009 26.9756 17.7009 28.0423Z" fill="#1C1B1F"/>
</g>
</svg>
