<svg width="49" height="49" viewBox="0 0 49 49" fill="none" xmlns="http://www.w3.org/2000/svg">
<mask id="mask0_1_416" style="mask-type:alpha" maskUnits="userSpaceOnUse" x="0" y="0" width="49" height="49">
<rect x="0.501221" y="0.0419922" width="48" height="48" fill="#D9D9D9"/>
</mask>
<g mask="url(#mask0_1_416)">
<path d="M6.50066 42.5035L6.50069 40.5035L42.5007 40.504L42.5007 42.504L6.50066 42.5035ZM10.5007 38.0421L10.5009 28.6576C9.34956 26.3702 8.48043 24.167 7.89346 22.048C7.30616 19.9287 7.01252 17.9215 7.01255 16.0265C7.01257 14.4548 7.21326 12.8203 7.61462 11.123C8.01598 9.42535 8.63067 7.45986 9.4587 5.22654C9.57171 4.88554 9.76155 4.60287 10.0282 4.37854C10.2949 4.15421 10.6154 4.04205 10.9897 4.04206C11.4334 4.04206 11.8039 4.21907 12.1012 4.57307C12.3985 4.92674 12.519 5.33058 12.4627 5.78458L11.9511 9.91107C11.7511 11.6651 11.9633 13.3869 12.5876 15.0766C13.2119 16.7663 14.1163 18.2746 15.301 19.6016C16.4856 20.9286 17.8766 22.0005 19.4739 22.8172C21.0713 23.6339 22.7469 24.0422 24.5009 24.0423C26.5779 24.0423 28.4644 24.1865 30.1604 24.4748C31.8568 24.7635 33.3011 25.1886 34.4934 25.7499C35.7624 26.3629 36.7476 27.1521 37.4489 28.1174C38.1502 29.0828 38.5008 30.2911 38.5008 31.7425L38.5007 38.0425L10.5007 38.0421ZM12.5008 36.0421L36.5008 36.0424L36.5008 31.7424C36.5008 30.8141 36.2623 30.0033 35.7854 29.3099C35.3084 28.6162 34.6007 28.0476 33.6624 27.6039C32.5777 27.0912 31.2509 26.7027 29.6819 26.4383C28.1126 26.1743 26.3856 26.0423 24.5009 26.0423C22.4549 26.0422 20.5029 25.5665 18.6449 24.6152C16.7873 23.6638 15.1746 22.417 13.807 20.8746C12.439 19.3322 11.4024 17.5822 10.6971 15.6246C9.99208 13.6669 9.76011 11.6727 10.0011 9.64204C9.66779 10.642 9.42611 11.683 9.27609 12.765C9.12608 13.847 9.05106 14.9342 9.05105 16.0265C9.05102 17.7292 9.34783 19.5619 9.94147 21.5245C10.5351 23.4876 11.3882 25.6781 12.5009 28.0961L12.5008 36.0421ZM24.501 21.1193C22.8393 21.1192 21.424 20.5345 20.255 19.3652C19.0857 18.1958 18.501 16.7805 18.5011 15.1192C18.5011 13.4575 19.0858 12.042 20.2551 10.8727C21.4241 9.70371 22.8395 9.11923 24.5011 9.11925C26.1628 9.11928 27.5781 9.7038 28.7471 10.8728C29.9164 12.0422 30.5011 13.4577 30.5011 15.1193C30.501 16.7807 29.9163 18.196 28.747 19.3653C27.578 20.5346 26.1626 21.1193 24.501 21.1193ZM24.501 19.1193C25.601 19.1193 26.5427 18.7276 27.326 17.9443C28.1094 17.161 28.501 16.2193 28.5011 15.1193C28.5011 14.0193 28.1094 13.0776 27.3261 12.2943C26.5428 11.511 25.6011 11.1193 24.5011 11.1193C23.4011 11.1192 22.4594 11.5109 21.6761 12.2942C20.8928 13.0775 20.5011 14.0192 20.5011 15.1192C20.501 16.2192 20.8927 17.1609 21.676 17.9442C22.4593 18.7276 23.401 19.1192 24.501 19.1193ZM17.5777 38.0422L17.5777 37.2307C17.5778 35.3563 18.2375 33.7665 19.5568 32.4612C20.8758 31.1562 22.4725 30.5037 24.3468 30.5038L31.1163 30.5039L31.1163 32.5039L24.3468 32.5038C23.0085 32.5037 21.879 32.9634 20.9583 33.8827C20.0379 34.8017 19.5778 35.9177 19.5777 37.2307L19.5777 38.0422L17.5777 38.0422Z" fill="#1C1B1F"/>
</g>
</svg>
