<svg width="48" height="49" viewBox="0 0 48 49" fill="none" xmlns="http://www.w3.org/2000/svg">
<mask id="mask0_1_389" style="mask-type:alpha" maskUnits="userSpaceOnUse" x="0" y="0" width="49" height="49">
<rect x="0.0012207" y="0.0427246" width="48" height="48" fill="#D9D9D9"/>
</mask>
<g mask="url(#mask0_1_389)">
<path d="M11.2322 40.0427C10.3116 40.0427 9.54289 39.7344 8.92622 39.1177C8.30955 38.5011 8.00122 37.7324 8.00122 36.8117V11.2737C8.00122 10.3531 8.30955 9.58439 8.92622 8.96772C9.54289 8.35106 10.3116 8.04272 11.2322 8.04272H36.7702C37.6909 8.04272 38.4596 8.35106 39.0762 8.96772C39.6929 9.58439 40.0012 10.3531 40.0012 11.2737V36.8117C40.0012 37.7324 39.6929 38.5011 39.0762 39.1177C38.4596 39.7344 37.6909 40.0427 36.7702 40.0427H11.2322ZM10.0012 32.4812V36.8117C10.0012 37.1197 10.1294 37.4019 10.3857 37.6582C10.6421 37.9146 10.9242 38.0427 11.2322 38.0427H36.7702C37.0782 38.0427 37.3604 37.9146 37.6167 37.6582C37.8731 37.4019 38.0012 37.1197 38.0012 36.8117V19.2352L26.4857 32.0427L18.4627 24.0197L10.0012 32.4812ZM10.0012 29.6272L18.4627 21.1657L26.4397 29.1427L38.0012 16.2352V11.2737C38.0012 10.9657 37.8731 10.6836 37.6167 10.4272C37.3604 10.1709 37.0782 10.0427 36.7702 10.0427H11.2322C10.9242 10.0427 10.6421 10.1709 10.3857 10.4272C10.1294 10.6836 10.0012 10.9657 10.0012 11.2737V29.6272ZM10.0012 19.2352V16.2352V29.1427V21.1657V32.4812V24.0197V32.0427V19.2352ZM10.0012 29.6272V10.0427V29.1427V21.1657V29.6272ZM10.0012 32.4812V24.0197V32.0427V19.2352V38.0427V32.4812Z" fill="#1C1B1F"/>
</g>
</svg>
