<svg width="36" height="37" viewBox="0 0 36 37" fill="none" xmlns="http://www.w3.org/2000/svg">
<path d="M7.26042 14.5656C5.25532 14.5656 3.54425 13.8571 2.1272 12.44C0.709716 11.0226 0.000976562 9.31148 0.000976562 7.30681C0.000976562 5.30171 0.709716 3.59063 2.1272 2.17358C3.54425 0.756103 5.25532 0.0473633 7.26042 0.0473633C9.26509 0.0473633 10.9762 0.756103 12.3937 2.17358C13.8107 3.59063 14.5192 5.30171 14.5192 7.30681C14.5192 9.31148 13.8107 11.0226 12.3937 12.44C10.9762 13.8571 9.26509 14.5656 7.26042 14.5656ZM7.25721 11.9977C8.55957 11.9977 9.66761 11.5419 10.5814 10.6303C11.4947 9.71871 11.9513 8.61173 11.9513 7.30938C11.9513 6.00703 11.4955 4.89919 10.5839 3.98588C9.67232 3.07213 8.56534 2.61526 7.26299 2.61526C5.96064 2.61526 4.85281 3.07107 3.93949 3.98267C3.02575 4.89427 2.56887 6.00125 2.56887 7.3036C2.56887 8.60595 3.02468 9.714 3.93628 10.6277C4.84788 11.5411 5.95486 11.9977 7.25721 11.9977ZM28.7415 36.0474C26.7369 36.0474 25.0258 35.3386 23.6083 33.9211C22.1912 32.5041 21.4827 30.793 21.4827 28.7879C21.4827 26.7832 22.1912 25.0722 23.6083 23.6547C25.0258 22.2376 26.7369 21.5291 28.7415 21.5291C30.7466 21.5291 32.4577 22.2376 33.8748 23.6547C35.2922 25.0722 36.001 26.7832 36.001 28.7879C36.001 30.793 35.2922 32.5041 33.8748 33.9211C32.4577 35.3386 30.7466 36.0474 28.7415 36.0474ZM28.739 33.4795C30.0413 33.4795 31.1491 33.0237 32.0625 32.1121C32.9762 31.2005 33.4331 30.0935 33.4331 28.7911C33.4331 27.4888 32.9773 26.3807 32.0657 25.467C31.1541 24.5537 30.0471 24.097 28.7447 24.097C27.4424 24.097 26.3343 24.5528 25.4206 25.4644C24.5073 26.376 24.0506 27.483 24.0506 28.7853C24.0506 30.0877 24.5064 31.1955 25.418 32.1088C26.3296 33.0226 27.4366 33.4795 28.739 33.4795ZM2.26265 35.5537L0.494655 33.7857L33.7393 0.541042L35.5073 2.30904L2.26265 35.5537Z" fill="#44AADC"/>
</svg>
